<svg id="Capa_1" enable-background="new 0 0 512 512" height="512" viewBox="0 0 512 512" width="512" xmlns="http://www.w3.org/2000/svg"><g><g fill="#020288"><path d="m207.807 196.481-14.187 14.187 41.522 48.66c1.979 2.318 4.786 3.509 7.612 3.509 2.296 0 4.604-.786 6.486-2.393 4.201-3.585 4.701-9.897 1.116-14.099z"/><path d="m482.671 160.823c-.192-9.032-.482-9.696-1.184-11.301-3.338-7.641-7.91-10.668-15.483-15.684-10.424-6.904-24.017-11.891-38.408-17.169-7.21-2.645-14.583-5.349-21.856-8.379l2.655-3.111c3.584-4.201 3.085-10.514-1.116-14.099-4.202-3.583-10.513-3.085-14.099 1.116l-6.145 7.202c-27.573-15.214-49.825-39.354-49.825-89.398 0-5.523-4.501-10-10.024-10h-142.64c-5.523 0-10 4.477-10 10 0 48.466-22.565 72.617-50.479 88.346l-5.247-6.148c-3.586-4.202-9.898-4.7-14.099-1.116-4.201 3.585-4.7 9.897-1.116 14.099l1.942 2.276c-7.375 3.221-14.854 6.127-22.167 8.968-14.102 5.479-27.42 10.653-37.628 17.414-7.574 5.017-12.146 8.044-15.485 15.686-.8 1.83-1.029 2.749-1.021 11.529.005 4.137.096 10.999.503 20.195.674 15.229 2.341 39.261 6.45 67.274 7.178 48.917 23.254 118.721 59.085 173.469 39.091 59.725 93.122 90.008 160.594 90.008 69.947 0 125.267-30.335 164.422-90.162 35.868-54.804 50.9-124.637 57.196-173.569 3.6-27.982 4.769-52.021 5.116-67.259.209-9.165.147-16.036.059-20.187zm-27.72 103.612c-8.37 51.97-27.558 124.091-71.428 172.55-33.048 36.505-75.995 55.015-127.645 55.015-48.574 0-89.587-17.712-121.898-52.643-83.886-90.686-84.874-265.241-84.658-283.195.814-1.142 2.382-2.276 7.476-5.649 8.413-5.572 20.758-10.368 33.827-15.446 9.013-3.502 18.711-7.269 28.432-11.781l50.967 59.729 14.187-14.187-46.971-55.045c28.844-17.132 54.051-43.915 57.015-93.783h123.227c2.852 51.34 27.751 78.164 56.347 94.875l-46.039 53.953 14.187 14.187 50.188-58.815c9.757 4.356 19.497 7.929 28.544 11.248 13.259 4.863 25.782 9.456 34.251 15.066 5.295 3.506 6.779 4.594 7.567 5.784.525 9.554 1.097 54.292-7.576 108.137z"/><path d="m304.193 196.481-41.589 48.739c-3.584 4.201-3.085 10.514 1.116 14.099 1.884 1.607 4.191 2.393 6.486 2.393 2.825 0 5.634-1.191 7.612-3.509l40.562-47.535z"/></g><g><g><path d="m256 383.569-63.42-63.477c-8.189-8.196-8.189-21.485 0-29.681l63.42-63.477 63.42 63.477c8.189 8.196 8.189 21.485 0 29.681z" fill="#ffbdbc"/></g><g><g><path d="m325.562 233.219-42.351-42.289 42.351-42.289 42.35 42.289z" fill="#ffbdbc"/></g><g><path d="m186.439 233.219-42.35-42.289 42.35-42.289 42.35 42.289z" fill="#ffbdbc"/></g></g></g></g></svg>